<mxfile host="app.diagrams.net" modified="2023-07-22T04:44:40.506Z" agent="Mozilla/5.0 (Windows NT 10.0; Win64; x64) AppleWebKit/537.36 (KHTML, like Gecko) Chrome/114.0.0.0 Safari/537.36" etag="3XUoi8lq5sA5_xoFsIzH" version="21.5.2" type="github">
  <diagram name="ページ1" id="PKhCmqumJbryl44LMtBW">
    <mxGraphModel dx="1914" dy="998" grid="1" gridSize="10" guides="1" tooltips="1" connect="1" arrows="1" fold="1" page="1" pageScale="1" pageWidth="827" pageHeight="1169" math="0" shadow="0">
      <root>
        <mxCell id="0" />
        <mxCell id="1" parent="0" />
        <mxCell id="rqxd_RGhrrBlme4TSZWR-8" style="edgeStyle=none;shape=connector;rounded=0;orthogonalLoop=1;jettySize=auto;html=1;exitX=1;exitY=0.5;exitDx=0;exitDy=0;exitPerimeter=0;entryX=0;entryY=0.5;entryDx=0;entryDy=0;entryPerimeter=0;labelBackgroundColor=default;strokeColor=default;fontFamily=Helvetica;fontSize=11;fontColor=default;startArrow=classicThin;startFill=1;endArrow=classic;" edge="1" parent="1" source="rqxd_RGhrrBlme4TSZWR-1" target="rqxd_RGhrrBlme4TSZWR-2">
          <mxGeometry relative="1" as="geometry" />
        </mxCell>
        <mxCell id="rqxd_RGhrrBlme4TSZWR-11" style="edgeStyle=none;shape=connector;rounded=0;orthogonalLoop=1;jettySize=auto;html=1;exitX=0.5;exitY=0;exitDx=0;exitDy=0;exitPerimeter=0;entryX=0.5;entryY=1;entryDx=0;entryDy=0;entryPerimeter=0;labelBackgroundColor=default;strokeColor=default;fontFamily=Helvetica;fontSize=11;fontColor=default;startArrow=classicThin;startFill=1;endArrow=classic;" edge="1" parent="1" source="rqxd_RGhrrBlme4TSZWR-1" target="rqxd_RGhrrBlme4TSZWR-9">
          <mxGeometry relative="1" as="geometry" />
        </mxCell>
        <mxCell id="rqxd_RGhrrBlme4TSZWR-1" value="" style="sketch=0;points=[[0.015,0.015,0],[0.985,0.015,0],[0.985,0.985,0],[0.015,0.985,0],[0.25,0,0],[0.5,0,0],[0.75,0,0],[1,0.25,0],[1,0.5,0],[1,0.75,0],[0.75,1,0],[0.5,1,0],[0.25,1,0],[0,0.75,0],[0,0.5,0],[0,0.25,0]];verticalLabelPosition=bottom;html=1;verticalAlign=top;aspect=fixed;align=center;pointerEvents=1;shape=mxgraph.cisco19.rect;prIcon=l2_switch;fillColor=#FAFAFA;strokeColor=#005073;" vertex="1" parent="1">
          <mxGeometry x="90" y="280" width="50" height="50" as="geometry" />
        </mxCell>
        <mxCell id="rqxd_RGhrrBlme4TSZWR-12" style="edgeStyle=none;shape=connector;rounded=0;orthogonalLoop=1;jettySize=auto;html=1;exitX=0.5;exitY=0;exitDx=0;exitDy=0;exitPerimeter=0;entryX=0.5;entryY=1;entryDx=0;entryDy=0;entryPerimeter=0;labelBackgroundColor=default;strokeColor=default;fontFamily=Helvetica;fontSize=11;fontColor=default;startArrow=classicThin;startFill=1;endArrow=classic;" edge="1" parent="1" source="rqxd_RGhrrBlme4TSZWR-2" target="rqxd_RGhrrBlme4TSZWR-9">
          <mxGeometry relative="1" as="geometry" />
        </mxCell>
        <mxCell id="rqxd_RGhrrBlme4TSZWR-2" value="" style="sketch=0;points=[[0.015,0.015,0],[0.985,0.015,0],[0.985,0.985,0],[0.015,0.985,0],[0.25,0,0],[0.5,0,0],[0.75,0,0],[1,0.25,0],[1,0.5,0],[1,0.75,0],[0.75,1,0],[0.5,1,0],[0.25,1,0],[0,0.75,0],[0,0.5,0],[0,0.25,0]];verticalLabelPosition=bottom;html=1;verticalAlign=top;aspect=fixed;align=center;pointerEvents=1;shape=mxgraph.cisco19.rect;prIcon=l2_switch;fillColor=#FAFAFA;strokeColor=#005073;" vertex="1" parent="1">
          <mxGeometry x="296" y="280" width="50" height="50" as="geometry" />
        </mxCell>
        <mxCell id="rqxd_RGhrrBlme4TSZWR-6" style="rounded=0;orthogonalLoop=1;jettySize=auto;html=1;exitX=0.25;exitY=1;exitDx=0;exitDy=0;exitPerimeter=0;entryX=0.5;entryY=0;entryDx=0;entryDy=0;entryPerimeter=0;startArrow=classicThin;startFill=1;" edge="1" parent="1" source="rqxd_RGhrrBlme4TSZWR-5" target="rqxd_RGhrrBlme4TSZWR-1">
          <mxGeometry relative="1" as="geometry" />
        </mxCell>
        <mxCell id="rqxd_RGhrrBlme4TSZWR-7" style="edgeStyle=none;shape=connector;rounded=0;orthogonalLoop=1;jettySize=auto;html=1;exitX=0.75;exitY=1;exitDx=0;exitDy=0;exitPerimeter=0;entryX=0.5;entryY=0;entryDx=0;entryDy=0;entryPerimeter=0;labelBackgroundColor=default;strokeColor=default;fontFamily=Helvetica;fontSize=11;fontColor=default;startArrow=classicThin;startFill=1;endArrow=classic;" edge="1" parent="1" source="rqxd_RGhrrBlme4TSZWR-5" target="rqxd_RGhrrBlme4TSZWR-2">
          <mxGeometry relative="1" as="geometry" />
        </mxCell>
        <mxCell id="rqxd_RGhrrBlme4TSZWR-10" style="edgeStyle=none;shape=connector;rounded=0;orthogonalLoop=1;jettySize=auto;html=1;exitX=1;exitY=0.75;exitDx=0;exitDy=0;exitPerimeter=0;entryX=0;entryY=0.75;entryDx=0;entryDy=0;entryPerimeter=0;labelBackgroundColor=default;strokeColor=default;fontFamily=Helvetica;fontSize=11;fontColor=default;startArrow=classicThin;startFill=1;endArrow=classic;" edge="1" parent="1" source="rqxd_RGhrrBlme4TSZWR-5" target="rqxd_RGhrrBlme4TSZWR-9">
          <mxGeometry relative="1" as="geometry" />
        </mxCell>
        <mxCell id="rqxd_RGhrrBlme4TSZWR-5" value="" style="sketch=0;points=[[0.015,0.015,0],[0.985,0.015,0],[0.985,0.985,0],[0.015,0.985,0],[0.25,0,0],[0.5,0,0],[0.75,0,0],[1,0.25,0],[1,0.5,0],[1,0.75,0],[0.75,1,0],[0.5,1,0],[0.25,1,0],[0,0.75,0],[0,0.5,0],[0,0.25,0]];verticalLabelPosition=bottom;html=1;verticalAlign=top;aspect=fixed;align=center;pointerEvents=1;shape=mxgraph.cisco19.rect;prIcon=nexus_7k;fillColor=#FAFAFA;strokeColor=#005073;" vertex="1" parent="1">
          <mxGeometry x="126" y="70" width="50" height="73" as="geometry" />
        </mxCell>
        <mxCell id="rqxd_RGhrrBlme4TSZWR-9" value="" style="sketch=0;points=[[0.015,0.015,0],[0.985,0.015,0],[0.985,0.985,0],[0.015,0.985,0],[0.25,0,0],[0.5,0,0],[0.75,0,0],[1,0.25,0],[1,0.5,0],[1,0.75,0],[0.75,1,0],[0.5,1,0],[0.25,1,0],[0,0.75,0],[0,0.5,0],[0,0.25,0]];verticalLabelPosition=bottom;html=1;verticalAlign=top;aspect=fixed;align=center;pointerEvents=1;shape=mxgraph.cisco19.rect;prIcon=nexus_7k;fillColor=#FAFAFA;strokeColor=#005073;" vertex="1" parent="1">
          <mxGeometry x="259" y="70" width="50" height="73" as="geometry" />
        </mxCell>
      </root>
    </mxGraphModel>
  </diagram>
</mxfile>
